<svg width="128" height="128" xmlns="http://www.w3.org/2000/svg" stroke-width="0" fill="#1F477D" stroke="currentColor">
  <path d="m64.8235,33.33862a2.21372,2.21372 0 0 0 -1.64701,0l-26.42292,10.56828l10.64355,4.25476l27.24642,-10.89591l-9.82005,-3.92713zm15.77937,6.31352l-27.24642,10.89591l10.64355,4.25476l27.24642,-10.89591l-10.64355,-4.25476zm14.38916,7.52664l-28.77831,11.51133l0,35.07412l28.77831,-11.51133l0,-35.0697l0,-0.00443zm-33.20575,46.58988l0,-35.08298l-28.77831,-11.5069l0,35.07855l28.77831,11.51133zm-0.25236,-64.54312a6.64115,6.64115 0 0 1 4.93216,0l31.56317,12.62704a2.21372,2.21372 0 0 1 1.39021,2.05433l0,38.35043a4.42743,4.42743 0 0 1 -2.78486,4.10866l-31.81111,12.72444a2.21372,2.21372 0 0 1 -1.64701,0l-31.80668,-12.72444a4.42743,4.42743 0 0 1 -2.78928,-4.10866l0,-38.35043a2.21372,2.21372 0 0 1 1.39021,-2.05433l31.56317,-12.62704z"/>
</svg>